<svg width="75" height="75" viewBox="0 0 75 75" fill="none" xmlns="http://www.w3.org/2000/svg">
<path d="M0 37.5C0 58.2107 16.7893 75 37.5 75C58.2107 75 75 58.2107 75 37.5C75 16.7893 58.2107 0 37.5 0C16.7893 0 0 16.7893 0 37.5Z" fill="#D6DEDB"/>
<path d="M36.4859 52.8365H29.161L26.545 60.75H21.5744L24.125 52.8365H17.6504L20.9858 42.0454H27.4606L30.4036 32.9546H22.4247L25.8254 22.0981H33.6736L36.0933 14.25H41.0639L38.644 22.0981H45.9036L48.4542 14.25H53.4246L50.874 22.0981H57.3486L53.9479 32.9546H47.6693L44.7917 42.0454H52.509L49.1736 52.8365H41.4563L38.971 60.75H34.0006L36.4859 52.8365ZM39.8213 42.0454L42.6989 32.9546H35.374L32.431 42.0454H39.8213Z" fill="#829199"/>
</svg>
